<?xml version="1.0" encoding="utf-8"?>
<!-- Generator: Adobe Illustrator 15.0.2, SVG Export Plug-In . SVG Version: 6.00 Build 0)  -->
<!DOCTYPE svg PUBLIC "-//W3C//DTD SVG 1.1//EN" "http://www.w3.org/Graphics/SVG/1.1/DTD/svg11.dtd">
<svg version="1.1" id="Layer_1" xmlns="http://www.w3.org/2000/svg" xmlns:xlink="http://www.w3.org/1999/xlink" x="0px" y="0px"
	 width="20px" height="24.279px" viewBox="0 0 20 24.279" enable-background="new 0 0 20 24.279" xml:space="preserve">
<g id="border">
	<g>
		<g display="none">
			<path display="inline" fill="#808080" d="M-4.9,34.249c-2.186,0-3.965-2.1-3.965-4.681V2.93c0-2.581,1.779-4.681,3.965-4.681
				h22.064c2.189,0,3.971,2.1,3.971,4.681v26.639c0,2.581-1.781,4.681-3.971,4.681L-4.9,34.249z"/>
			<path display="inline" fill="#808080" d="M17.164-1.25c1.92,0,3.471,1.872,3.471,4.181v26.639c0,2.309-1.551,4.181-3.471,4.181
				v-0.001H-4.9c-1.913,0-3.465-1.872-3.465-4.181V2.93c0-2.309,1.552-4.181,3.465-4.181H17.164 M17.164-2.25H-4.9
				c-2.462,0-4.465,2.324-4.465,5.181v26.638c0,2.856,2.003,5.181,4.465,5.181h22.064c0.001,0,0.001,0,0.002,0
				c1.23,0,2.375-0.562,3.223-1.585c0.804-0.969,1.246-2.245,1.246-3.595V2.93C21.635,0.074,19.629-2.25,17.164-2.25L17.164-2.25z"
				/>
		</g>
		<g>
			<path fill="#F2F2F2" d="M-4.9,33.542c-1.864,0-3.381-1.782-3.381-3.973V2.931c0-2.19,1.517-3.973,3.381-3.973l22.064-0.001
				c1.868,0,3.388,1.782,3.388,3.973v26.639c0,2.19-1.52,3.973-3.388,3.973H-4.9z"/>
			<path fill="#808080" d="M17.164-0.542c1.593,0,2.888,1.559,2.888,3.473v26.639c0,1.914-1.297,3.473-2.888,3.473H-4.9
				c-1.586,0-2.881-1.559-2.881-3.473V2.931c0-1.915,1.294-3.473,2.881-3.473v-0.001H17.164 M17.164-1.542H-4.9
				c-2.14,0.001-3.881,2.008-3.881,4.474v26.638c0,2.466,1.741,4.473,3.881,4.473h22.064c2.144,0,3.888-2.007,3.888-4.473V2.93
				C21.052,0.464,19.308-1.542,17.164-1.542L17.164-1.542z"/>
		</g>
	</g>
</g>
<g id="Layer_1_1_">
	<path fill="#808080" d="M9.597,7.163c1.696,0,3.075-1.378,3.083-3.081C12.671,2.385,11.293,1.006,9.597,1
		C7.892,1.006,6.514,2.385,6.515,4.083C6.514,5.785,7.892,7.163,9.597,7.163L9.597,7.163z"/>
	<path fill="#808080" d="M2.527,4.692c1.743-0.899,4.182,0.75,4.202,2.554v5.868l2.786,3.082c1.28,1.434-0.746,3.409-2.16,1.978
		l-3.147-3.477c-0.203-0.193-0.35-0.424-0.346-0.957v-2.802l-5.505,2.966v14.915c0.001,3.369-4.562,3.368-4.564,0.032V11.168
		c0.003-0.984,0.394-1.943,1.368-2.505L2.527,4.692L2.527,4.692z"/>
	<path fill="#808080" d="M13.947,19.82h4.845v-8.817l-9.756-0.017c-1.247,0-1.716,1.414-0.939,2.308L13.947,19.82L13.947,19.82z"/>
	<path fill="#808080" d="M11.146,10.591c0.203-0.002,0.373-0.17,0.377-0.379c-0.004-0.208-0.174-0.376-0.377-0.378
		c-0.211,0.002-0.379,0.171-0.379,0.378C10.766,10.421,10.936,10.589,11.146,10.591L11.146,10.591z"/>
	<path fill="#808080" d="M11.146,10.212"/>
	<path fill="#808080" d="M12.15,10.657c0.207-0.002,0.375-0.17,0.379-0.378c-0.004-0.208-0.172-0.377-0.379-0.379
		c-0.209,0.003-0.377,0.171-0.379,0.379C11.773,10.486,11.941,10.655,12.15,10.657L12.15,10.657z"/>
	<path fill="#808080" d="M12.15,10.279"/>
	<path fill="#808080" d="M12.216,9.537c0.207,0.005,0.375-0.164,0.38-0.363c-0.006-0.216-0.174-0.383-0.38-0.379
		c-0.208-0.004-0.377,0.164-0.379,0.379C11.839,9.374,12.008,9.542,12.216,9.537L12.216,9.537z"/>
	<path fill="#808080" d="M12.216,9.175"/>
	<path fill="#808080" d="M11.211,9.469c0.208,0.004,0.375-0.167,0.379-0.378c-0.004-0.203-0.172-0.37-0.379-0.379
		c-0.208,0.009-0.377,0.177-0.379,0.379C10.834,9.304,11.004,9.473,11.211,9.469L11.211,9.469z"/>
	<path fill="#808080" d="M11.211,9.092"/>
	<path fill="#808080" d="M11.541,8.449c0.214-0.007,0.391-0.184,0.396-0.395c-0.004-0.227-0.182-0.403-0.396-0.396
		c-0.223-0.007-0.398,0.17-0.396,0.396C11.143,8.265,11.318,8.441,11.541,8.449L11.541,8.449z"/>
	<path fill="#808080" d="M11.541,8.054"/>
	<path fill="#808080" d="M12.76,8.647c0.221-0.009,0.397-0.186,0.396-0.396c0.001-0.226-0.176-0.402-0.396-0.395
		c-0.217-0.008-0.393,0.169-0.395,0.395C12.367,8.462,12.543,8.638,12.76,8.647L12.76,8.647z"/>
	<path fill="#808080" d="M12.76,8.251"/>
	<path fill="#808080" d="M12.333,7.625c0.224-0.005,0.409-0.189,0.412-0.412c-0.003-0.236-0.188-0.423-0.412-0.429
		c-0.235,0.006-0.42,0.192-0.413,0.429C11.913,7.436,12.098,7.62,12.333,7.625L12.333,7.625z"/>
	<path fill="#808080" d="M12.333,7.213"/>
	<path fill="#808080" d="M13.749,8.284c0.226-0.005,0.41-0.191,0.413-0.412c-0.002-0.237-0.188-0.423-0.413-0.429
		c-0.233,0.006-0.418,0.19-0.412,0.429C13.331,8.093,13.516,8.28,13.749,8.284L13.749,8.284z"/>
	<path fill="#808080" d="M13.749,7.873"/>
	<path fill="#808080" d="M13.288,7.263c0.233-0.006,0.421-0.191,0.429-0.413c-0.007-0.236-0.193-0.423-0.429-0.429
		c-0.222,0.006-0.41,0.192-0.412,0.429C12.878,7.072,13.066,7.258,13.288,7.263L13.288,7.263z"/>
	<path fill="#808080" d="M13.288,6.85"/>
	<path fill="#808080" d="M14.409,7.263c0.256-0.004,0.461-0.208,0.461-0.463c0-0.251-0.205-0.456-0.461-0.461
		c-0.249,0.005-0.454,0.21-0.462,0.461C13.955,7.054,14.159,7.26,14.409,7.263L14.409,7.263z"/>
	<path fill="#808080" d="M14.409,6.801"/>
	<path fill="#808080" d="M14.771,8.68c0.248-0.004,0.453-0.208,0.459-0.462c-0.006-0.253-0.211-0.458-0.459-0.462
		c-0.258,0.006-0.461,0.209-0.461,0.462C14.311,8.472,14.516,8.676,14.771,8.68L14.771,8.68z"/>
	<path fill="#808080" d="M14.771,8.219"/>
	<path fill="#808080" d="M15.462,7.807c0.271-0.007,0.485-0.222,0.479-0.479c0.006-0.271-0.209-0.487-0.479-0.494
		c-0.26,0.007-0.476,0.223-0.478,0.494C14.986,7.586,15.202,7.8,15.462,7.807L15.462,7.807z"/>
	<path fill="#808080" d="M15.462,7.329"/>
	<path fill="#808080" d="M16.387,8.729c0.277,0.001,0.504-0.225,0.512-0.496c-0.008-0.285-0.234-0.511-0.512-0.51
		c-0.279-0.001-0.506,0.225-0.512,0.51C15.881,8.506,16.105,8.731,16.387,8.729L16.387,8.729z"/>
	<path fill="#808080" d="M16.387,8.234"/>
	<path fill="#808080" d="M15.512,9.619c0.281,0.001,0.506-0.224,0.512-0.495c-0.006-0.285-0.23-0.512-0.512-0.51
		c-0.275-0.002-0.502,0.225-0.492,0.51C15.01,9.395,15.236,9.62,15.512,9.619L15.512,9.619z"/>
	<path fill="#808080" d="M15.512,9.125"/>
</g>
<g id="Layer_1_copy" display="none">
	<path display="inline" d="M9.597,7.163c1.696,0,3.075-1.378,3.083-3.081C12.671,2.385,11.293,1.006,9.597,1
		C7.892,1.006,6.514,2.385,6.515,4.083C6.514,5.785,7.892,7.163,9.597,7.163L9.597,7.163z"/>
	<path display="inline" d="M2.527,4.692c1.743-0.899,4.182,0.75,4.202,2.554v5.868l2.786,3.082c1.28,1.434-0.746,3.409-2.16,1.978
		l-3.147-3.477c-0.203-0.193-0.35-0.424-0.346-0.957v-2.802l-5.505,2.966v14.915c0.001,3.369-4.562,3.368-4.564,0.032V11.168
		c0.003-0.984,0.394-1.943,1.368-2.505L2.527,4.692L2.527,4.692z"/>
	<path display="inline" d="M13.947,19.82h4.845v-8.817l-9.756-0.017c-1.247,0-1.716,1.414-0.939,2.308L13.947,19.82L13.947,19.82z"
		/>
	<path display="inline" d="M11.146,10.591c0.203-0.002,0.373-0.17,0.377-0.379c-0.004-0.208-0.174-0.376-0.377-0.378
		c-0.211,0.002-0.379,0.171-0.379,0.378C10.766,10.421,10.936,10.589,11.146,10.591L11.146,10.591z"/>
	<path display="inline" d="M11.146,10.212"/>
	<path display="inline" d="M12.15,10.657c0.207-0.002,0.375-0.17,0.379-0.378c-0.004-0.208-0.172-0.377-0.379-0.379
		c-0.209,0.003-0.377,0.171-0.379,0.379C11.773,10.486,11.941,10.655,12.15,10.657L12.15,10.657z"/>
	<path display="inline" d="M12.15,10.279"/>
	<path display="inline" d="M12.216,9.537c0.207,0.005,0.375-0.164,0.38-0.363c-0.006-0.216-0.174-0.383-0.38-0.379
		c-0.208-0.004-0.377,0.164-0.379,0.379C11.839,9.374,12.008,9.542,12.216,9.537L12.216,9.537z"/>
	<path display="inline" d="M12.216,9.175"/>
	<path display="inline" d="M11.211,9.469c0.208,0.004,0.375-0.167,0.379-0.378c-0.004-0.203-0.172-0.37-0.379-0.379
		c-0.208,0.009-0.377,0.177-0.379,0.379C10.834,9.304,11.004,9.473,11.211,9.469L11.211,9.469z"/>
	<path display="inline" d="M11.211,9.092"/>
	<path display="inline" d="M11.541,8.449c0.214-0.007,0.391-0.184,0.396-0.395c-0.004-0.227-0.182-0.403-0.396-0.396
		c-0.223-0.007-0.398,0.17-0.396,0.396C11.143,8.265,11.318,8.441,11.541,8.449L11.541,8.449z"/>
	<path display="inline" d="M11.541,8.054"/>
	<path display="inline" d="M12.76,8.647c0.221-0.009,0.397-0.186,0.396-0.396c0.001-0.226-0.176-0.402-0.396-0.395
		c-0.217-0.008-0.393,0.169-0.395,0.395C12.367,8.462,12.543,8.638,12.76,8.647L12.76,8.647z"/>
	<path display="inline" d="M12.76,8.251"/>
	<path display="inline" d="M12.333,7.625c0.224-0.005,0.409-0.189,0.412-0.412c-0.003-0.236-0.188-0.423-0.412-0.429
		c-0.235,0.006-0.42,0.192-0.413,0.429C11.913,7.436,12.098,7.62,12.333,7.625L12.333,7.625z"/>
	<path display="inline" d="M12.333,7.213"/>
	<path display="inline" d="M13.749,8.284c0.226-0.005,0.41-0.191,0.413-0.412c-0.002-0.237-0.188-0.423-0.413-0.429
		c-0.233,0.006-0.418,0.19-0.412,0.429C13.331,8.093,13.516,8.28,13.749,8.284L13.749,8.284z"/>
	<path display="inline" d="M13.749,7.873"/>
	<path display="inline" d="M13.288,7.263c0.233-0.006,0.421-0.191,0.429-0.413c-0.007-0.236-0.193-0.423-0.429-0.429
		c-0.222,0.006-0.41,0.192-0.412,0.429C12.878,7.072,13.066,7.258,13.288,7.263L13.288,7.263z"/>
	<path display="inline" d="M13.288,6.85"/>
	<path display="inline" d="M14.409,7.263c0.256-0.004,0.461-0.208,0.461-0.463c0-0.251-0.205-0.456-0.461-0.461
		c-0.249,0.005-0.454,0.21-0.462,0.461C13.955,7.054,14.159,7.26,14.409,7.263L14.409,7.263z"/>
	<path display="inline" d="M14.409,6.801"/>
	<path display="inline" d="M14.771,8.68c0.248-0.004,0.453-0.208,0.459-0.462c-0.006-0.253-0.211-0.458-0.459-0.462
		c-0.258,0.006-0.461,0.209-0.461,0.462C14.311,8.472,14.516,8.676,14.771,8.68L14.771,8.68z"/>
	<path display="inline" d="M14.771,8.219"/>
	<path display="inline" d="M15.462,7.807c0.271-0.007,0.485-0.222,0.479-0.479c0.006-0.271-0.209-0.487-0.479-0.494
		c-0.26,0.007-0.476,0.223-0.478,0.494C14.986,7.586,15.202,7.8,15.462,7.807L15.462,7.807z"/>
	<path display="inline" d="M15.462,7.329"/>
	<path display="inline" d="M16.387,8.729c0.277,0.001,0.504-0.225,0.512-0.496c-0.008-0.285-0.234-0.511-0.512-0.51
		c-0.279-0.001-0.506,0.225-0.512,0.51C15.881,8.506,16.105,8.731,16.387,8.729L16.387,8.729z"/>
	<path display="inline" d="M16.387,8.234"/>
	<path display="inline" d="M15.512,9.619c0.281,0.001,0.506-0.224,0.512-0.495c-0.006-0.285-0.23-0.512-0.512-0.51
		c-0.275-0.002-0.502,0.225-0.492,0.51C15.01,9.395,15.236,9.62,15.512,9.619L15.512,9.619z"/>
	<path display="inline" d="M15.512,9.125"/>
</g>
</svg>
