<?xml version="1.0" encoding="utf-8"?>
<!-- Generator: Adobe Illustrator 15.0.2, SVG Export Plug-In . SVG Version: 6.00 Build 0)  -->
<!DOCTYPE svg PUBLIC "-//W3C//DTD SVG 1.1//EN" "http://www.w3.org/Graphics/SVG/1.1/DTD/svg11.dtd">
<svg version="1.1" id="Layer_1" xmlns="http://www.w3.org/2000/svg" xmlns:xlink="http://www.w3.org/1999/xlink" x="0px" y="0px"
	 width="25px" height="25px" viewBox="0 0 25 25" enable-background="new 0 0 25 25" xml:space="preserve">
<g id="A_3_">
	<g>
		<path fill="#FFFFFF" d="M12.5,24.485c-6.609,0-11.986-5.376-11.986-11.985c0-6.609,5.377-11.986,11.986-11.986
			c6.609,0,11.985,5.377,11.985,11.986C24.485,19.109,19.109,24.485,12.5,24.485z"/>
		<path fill="#231F20" d="M12.5,1.029c6.325,0,11.472,5.146,11.472,11.471S18.825,23.972,12.5,23.972S1.029,18.825,1.029,12.5
			S6.175,1.029,12.5,1.029 M12.5,0C5.597,0,0,5.597,0,12.5S5.597,25,12.5,25S25,19.403,25,12.5S19.403,0,12.5,0L12.5,0z"/>
	</g>
	<g display="none">
		<path display="inline" fill="#231F20" d="M8.105,7.111h4.65c1.267,0,2.168,0.375,2.705,1.123c0.313,0.442,0.472,0.953,0.472,1.531
			c0,0.676-0.193,1.229-0.579,1.662c-0.2,0.229-0.487,0.438-0.863,0.627c0.551,0.209,0.964,0.445,1.237,0.707
			c0.482,0.467,0.725,1.11,0.725,1.932c0,0.69-0.219,1.315-0.655,1.874c-0.653,0.836-1.692,1.254-3.116,1.254H8.105V7.111z
			 M12.211,11.638c0.621,0,1.104-0.085,1.449-0.255c0.543-0.268,0.814-0.749,0.814-1.444c0-0.7-0.289-1.171-0.865-1.414
			c-0.326-0.136-0.81-0.204-1.45-0.204H9.533v3.317H12.211z M12.703,16.581c0.901,0,1.545-0.258,1.929-0.772
			c0.241-0.326,0.362-0.72,0.362-1.182c0-0.777-0.353-1.307-1.057-1.589c-0.375-0.151-0.87-0.226-1.485-0.226H9.533v3.769H12.703z"
			/>
	</g>
	<text transform="matrix(1.0042 0 0 1 7 17.8203)" fill="#231F20" font-family="'Helvetica'" font-size="14.9302">B</text>
</g>
</svg>
