<?xml version="1.0" encoding="utf-8"?>
<!-- Generator: Adobe Illustrator 15.0.2, SVG Export Plug-In . SVG Version: 6.00 Build 0)  -->
<!DOCTYPE svg PUBLIC "-//W3C//DTD SVG 1.1//EN" "http://www.w3.org/Graphics/SVG/1.1/DTD/svg11.dtd">
<svg version="1.1" id="Layer_1" xmlns="http://www.w3.org/2000/svg" xmlns:xlink="http://www.w3.org/1999/xlink" x="0px" y="0px"
	 width="42px" height="22px" viewBox="0 0 42 22" enable-background="new 0 0 42 22" xml:space="preserve">
<g id="Pacific_Blvd_1_">
	<g>
		<path fill="#FFFFFF" d="M8,21.5c-4.136,0-7.5-3.364-7.5-7.5V8c0-4.136,3.364-7.5,7.5-7.5h26c4.136,0,7.5,3.364,7.5,7.5v6
			c0,4.136-3.364,7.5-7.5,7.5H8z"/>
		<path fill="#231F20" d="M34,1c3.859,0,7,3.14,7,7v6c0,3.859-3.141,7-7,7H8c-3.86,0-7-3.141-7-7V8c0-3.86,3.14-7,7-7H34 M34,0H8
			C3.6,0,0,3.6,0,8v6c0,4.4,3.6,8,8,8h26c4.4,0,8-3.6,8-8V8C42,3.6,38.4,0,34,0L34,0z"/>
	</g>
	<g>
		<path id="path3281" fill="none" stroke="#000000" stroke-linecap="round" stroke-linejoin="round" d="M7,14.076c0-2,2-3,4-3
			s4,1,4,3"/>
		<path id="path3283" stroke="#000000" stroke-linecap="round" stroke-linejoin="round" d="M10,8.076c0,0.552-0.447,1-1,1
			s-1-0.448-1-1c0-0.552,0.447-1,1-1S10,7.524,10,8.076z"/>
		<path id="path3285" stroke="#000000" stroke-linecap="round" stroke-linejoin="round" d="M14,8.076c0,0.552-0.447,1-1,1
			s-1-0.448-1-1c0-0.552,0.447-1,1-1S14,7.524,14,8.076z"/>
		<g id="use3286" transform="translate(32,16)">
			<path id="path3270_7_" fill="none" stroke="#000000" stroke-linecap="round" stroke-linejoin="round" d="M-13.875-5.049
				c0,3.865-3.134,7-7,7s-7-3.135-7-7c0-3.866,3.134-7,7-7S-13.875-8.915-13.875-5.049z"/>
		</g>
	</g>
</g>
</svg>
