<?xml version="1.0" encoding="utf-8"?>
<!-- Generator: Adobe Illustrator 15.0.2, SVG Export Plug-In . SVG Version: 6.00 Build 0)  -->
<!DOCTYPE svg PUBLIC "-//W3C//DTD SVG 1.1//EN" "http://www.w3.org/Graphics/SVG/1.1/DTD/svg11.dtd">
<svg version="1.1" id="Layer_1" xmlns="http://www.w3.org/2000/svg" xmlns:xlink="http://www.w3.org/1999/xlink" x="0px" y="0px"
	 width="25px" height="25px" viewBox="0 0 25 25" enable-background="new 0 0 25 25" xml:space="preserve">
<g id="A_3_">
	<g>
		<path fill="#FFFFFF" d="M12.5,24.485c-6.609,0-11.986-5.376-11.986-11.985c0-6.609,5.377-11.986,11.986-11.986
			c6.609,0,11.985,5.377,11.985,11.986C24.485,19.109,19.109,24.485,12.5,24.485z"/>
		<path fill="#231F20" d="M12.5,1.029c6.325,0,11.472,5.146,11.472,11.471S18.825,23.972,12.5,23.972S1.029,18.825,1.029,12.5
			S6.175,1.029,12.5,1.029 M12.5,0C5.597,0,0,5.597,0,12.5S5.597,25,12.5,25S25,19.403,25,12.5S19.403,0,12.5,0L12.5,0z"/>
	</g>
	<g display="none">
		<path display="inline" fill="#231F20" d="M11.568,7.137h1.754l4.166,10.845h-1.703l-1.198-3.249h-4.502L8.84,17.982H7.246
			L11.568,7.137z M14.146,13.537l-1.768-4.791l-1.836,4.791H14.146z"/>
	</g>
	<text transform="matrix(1.0582 0 0 1 6.5625 17.9824)" fill="#231F20" font-family="'Helvetica'" font-size="15.1194">A</text>
</g>
</svg>
